HIERARCHY
ROOT Hips
{
    OFFSET 0.000000 0.000000 0.000000
    CHANNELS 6 Xposition Yposition Zposition Zrotation Xrotation Yrotation
    JOINT Spine
    {
        OFFSET -0.000000 14.517291 0.000000
        CHANNELS 3 Zrotation Xrotation Yrotation
        JOINT Spine1
        {
            OFFSET -0.000000 37.558300 0.000000
            CHANNELS 3 Zrotation Xrotation Yrotation
            JOINT Neck
            {
                OFFSET -0.000000 37.404057 3.400369
                CHANNELS 3 Zrotation Xrotation Yrotation
                JOINT Head
                {
                    OFFSET -0.000000 24.785618 -3.540803
                    CHANNELS 3 Zrotation Xrotation Yrotation
                    End Site
                    {
                        OFFSET -0.000000 35.408028 0.000000
                    }
                }
            }
            JOINT LeftShoulder
            {
                OFFSET 6.992933 33.973492 -0.192664
                CHANNELS 3 Zrotation Xrotation Yrotation
                JOINT LeftArm
                {
                    OFFSET 21.527611 0.000000 0.000000
                    CHANNELS 3 Zrotation Xrotation Yrotation
                    JOINT LeftForeArm
                    {
                        OFFSET 56.353916 0.000000 0.000000
                        CHANNELS 3 Zrotation Xrotation Yrotation
                        JOINT LeftHand
                        {
                            OFFSET 47.774071 0.000000 0.000000
                            CHANNELS 3 Zrotation Xrotation Yrotation
                            End Site
                            {
                                OFFSET 26.556021 0.000000 0.000000
                            }
                        }
                    }
                }
            }
            JOINT RightShoulder
            {
                OFFSET -7.065357 33.973492 -0.192664
                CHANNELS 3 Zrotation Xrotation Yrotation
                JOINT RightArm
                {
                    OFFSET -21.527611 0.000000 0.000000
                    CHANNELS 3 Zrotation Xrotation Yrotation
                    JOINT RightForeArm
                    {
                        OFFSET -56.353916 0.000000 0.000000
                        CHANNELS 3 Zrotation Xrotation Yrotation
                        JOINT RightHand
                        {
                            OFFSET -47.774071 0.000000 0.000000
                            CHANNELS 3 Zrotation Xrotation Yrotation
                            End Site
                            {
                                OFFSET -26.556021 0.000000 0.000000
                            }
                        }
                    }
                }
            }
        }
    }
    JOINT LeftUpLeg
    {
        OFFSET 17.704014 0.000000 0.000000
        CHANNELS 3 Zrotation Xrotation Yrotation
        JOINT LeftLeg
        {
            OFFSET -0.000000 -81.181816 0.000000
            CHANNELS 3 Zrotation Xrotation Yrotation
            JOINT LeftFoot
            {
                OFFSET -0.000000 -62.821102 0.000000
                CHANNELS 3 Zrotation Xrotation Yrotation
                JOINT LeftToeBase
                {
                    OFFSET -0.000000 -11.507608 26.556021
                    CHANNELS 3 Zrotation Xrotation Yrotation
                    End Site
                    {
                        OFFSET -0.000000 0.000000 7.081605
                    }
                }
            }
        }
    }
    JOINT RightUpLeg
    {
        OFFSET -17.704014 0.000000 0.000000
        CHANNELS 3 Zrotation Xrotation Yrotation
        JOINT RightLeg
        {
            OFFSET -0.000000 -81.181816 0.000000
            CHANNELS 3 Zrotation Xrotation Yrotation
            JOINT RightFoot
            {
                OFFSET -0.000000 -62.821102 0.000000
                CHANNELS 3 Zrotation Xrotation Yrotation
                JOINT RightToeBase
                {
                    OFFSET -0.000000 -11.507608 26.556021
                    CHANNELS 3 Zrotation Xrotation Yrotation
                    End Site
                    {
                        OFFSET -0.000000 0.000000 7.081605
                    }
                }
            }
        }
    }
}
MOTION
Frames:    13
Frame Time:    0.008333
33.698376    159.357880    -100.951302    -0.649937    -0.965194    23.962166    -2.120934    -1.773507    -3.319478    -6.988434    -7.165164    -1.535616    6.503171    1.883948    -3.319651    12.752929    5.880597    -3.139549    17.095646    -20.216667    -14.815071    -40.834885    -37.193077    -74.491806    -1.071903    -57.957928    -121.614296    -35.504139    -49.742687    -46.604294    -8.761466    5.486077    -5.955773    21.339840    24.973543    10.822496    16.591829    13.465129    5.039906    2.455415    13.248293    23.575050    8.897949    2.542159    0.991431    -10.371178    22.469860    -16.585793    6.459092    -22.368357    44.647175    0.000000    0.000000    0.000000    -13.836462    -27.273855    -6.820850    12.083133    28.631643    -13.837214    2.544476    11.824588    -12.688565    0.000000    0.000000    0.000000    
33.720860    159.333664    -100.945709    -0.633761    -0.985928    24.017532    -2.119402    -1.806739    -3.318035    -7.017773    -7.089009    -1.532065    6.478938    1.907115    -3.322928    12.792239    5.838347    -3.130031    17.135883    -20.159418    -14.830516    -40.874050    -37.119736    -74.419151    -1.029591    -58.004421    -121.477577    -35.350296    -49.843399    -46.409580    -8.759611    5.458872    -5.937578    21.409235    24.987936    10.722788    16.603130    13.473929    5.058956    2.480297    13.258579    23.558048    8.901553    2.543684    0.960147    -10.393230    22.509542    -16.592054    6.485811    -22.400154    44.638630    0.000000    0.000000    0.000000    -13.874948    -27.259558    -6.790552    12.126854    28.687073    -13.878971    2.549936    11.773322    -12.734571    0.000000    0.000000    0.000000    
33.748348    159.311279    -100.941399    -0.614517    -1.004676    24.069376    -2.125188    -1.840111    -3.308994    -7.033522    -7.013812    -1.525190    6.448004    1.949909    -3.324629    12.824552    5.767395    -3.114255    17.059679    -20.048569    -14.859450    -40.712715    -37.027695    -74.353294    -1.517746    -58.124226    -121.699127    -35.876457    -50.361343    -46.536411    -8.761791    5.465817    -5.958687    21.457977    24.982750    10.682095    16.619080    13.483847    5.060091    2.467845    13.265750    23.586473    8.891291    2.542287    0.946981    -10.383200    22.561308    -16.632141    6.499587    -22.441332    44.631657    0.000000    0.000000    0.000000    -13.918147    -27.238752    -6.751536    12.170860    28.728765    -13.908420    2.563394    11.717761    -12.778628    0.000000    0.000000    0.000000    
33.775532    159.291428    -100.938782    -0.598879    -1.021341    24.108501    -2.123487    -1.876040    -3.291939    -7.059153    -6.937724    -1.516123    6.423590    1.957034    -3.331621    12.843599    5.753685    -3.114571    16.997551    -19.961718    -14.899302    -40.583057    -36.937347    -74.244270    -1.380617    -58.200474    -121.388939    -35.775639    -50.327114    -46.497906    -8.746820    5.477414    -5.980113    21.493349    24.966745    10.652454    16.633795    13.490940    5.055125    2.449927    13.269480    23.595919    8.890010    2.548793    0.913381    -10.408087    22.579887    -16.632860    6.513855    -22.460823    44.644394    0.000000    0.000000    0.000000    -13.950173    -27.219156    -6.713458    12.211501    28.754814    -13.956985    2.582958    11.673825    -12.818647    0.000000    0.000000    0.000000    
33.799274    159.275131    -100.940872    -0.591128    -1.031065    24.134611    -2.124239    -1.923308    -3.266674    -7.067969    -6.859412    -1.503106    6.414238    1.968146    -3.332602    12.821445    5.733807    -3.113576    16.916164    -19.866501    -14.939461    -40.436901    -36.842426    -74.149055    -1.224920    -58.281662    -121.028236    -35.607262    -50.304852    -46.436836    -8.751296    5.470365    -5.989452    21.550184    24.987696    10.597540    16.628880    13.474325    5.083780    2.434119    13.245341    23.576588    8.887227    2.544396    0.897585    -10.416266    22.608509    -16.630762    6.521536    -22.481291    44.635571    0.000000    0.000000    0.000000    -13.966364    -27.215052    -6.693005    12.218104    28.787687    -13.970924    2.580877    11.644163    -12.835120    0.000000    0.000000    0.000000    
33.829220    159.259766    -100.942612    -0.572637    -1.048607    24.157185    -2.124894    -1.949762    -3.246320    -7.091622    -6.799881    -1.493912    6.427825    1.987174    -3.324559    12.779139    5.721254    -3.108455    16.862377    -19.765322    -14.974404    -40.268387    -36.738293    -74.015640    -1.014747    -58.394314    -120.621437    -35.530521    -50.223484    -46.417213    -8.738372    5.455669    -5.986038    21.588705    24.994505    10.552616    16.650040    13.486590    5.070871    2.398449    13.251462    23.585304    8.873607    2.557413    0.882391    -10.418073    22.628391    -16.631027    6.514985    -22.517128    44.630459    0.000000    0.000000    0.000000    -13.989344    -27.197521    -6.667480    12.228903    28.817480    -13.989165    2.603869    11.615015    -12.867769    0.000000    0.000000    0.000000    
33.858139    159.245636    -100.943604    -0.558814    -1.061882    24.171789    -2.122400    -1.983178    -3.220264    -7.117302    -6.734615    -1.482467    6.455762    1.982816    -3.310726    12.718514    5.727069    -3.104322    16.808943    -19.667084    -15.001530    -40.173138    -36.662296    -73.927574    -0.852888    -58.381653    -120.202682    -35.395046    -50.074837    -46.356228    -8.721161    5.457211    -6.000848    21.619802    24.980362    10.533336    16.659466    13.504578    5.061308    2.368708    13.264684    23.598906    8.863523    2.572068    0.866429    -10.429316    22.636524    -16.609051    6.525099    -22.529949    44.608067    0.000000    0.000000    0.000000    -14.005049    -27.184494    -6.640367    12.238000    28.838291    -14.025992    2.598109    11.580170    -12.867020    0.000000    0.000000    0.000000    
33.885365    159.230927    -100.945786    -0.540696    -1.079923    24.176746    -2.129231    -2.003865    -3.188605    -7.128664    -6.680201    -1.469028    6.457358    1.999631    -3.303280    12.682908    5.717740    -3.098093    16.742157    -19.562555    -15.045720    -39.999863    -36.569973    -73.792747    -0.612419    -58.449905    -119.699638    -35.327583    -49.908119    -46.336765    -8.721562    5.436026    -6.008170    21.663862    24.993191    10.497891    16.668222    13.526502    5.064153    2.365838    13.285406    23.607201    8.851850    2.598987    0.859813    -10.440579    22.635387    -16.599176    6.532953    -22.549524    44.595398    0.000000    0.000000    0.000000    -14.016681    -27.166807    -6.629558    12.225007    28.861786    -14.008613    2.611845    11.548594    -12.873345    0.000000    0.000000    0.000000    
33.913399    159.219269    -100.947525    -0.523212    -1.092950    24.180656    -2.138795    -2.031039    -3.163902    -7.139646    -6.623696    -1.457706    6.423172    2.021671    -3.310589    12.698677    5.712977    -3.097941    16.697353    -19.447412    -15.064344    -39.928467    -36.508556    -73.713188    -0.359707    -58.419403    -119.147202    -35.204746    -49.643356    -46.255344    -8.719703    5.446955    -6.015198    21.698357    24.974270    10.492414    16.678070    13.530385    5.068827    2.382800    13.291599    23.604721    8.836751    2.626450    0.840068    -10.449627    22.627748    -16.605669    6.544347    -22.570139    44.615746    0.000000    0.000000    0.000000    -14.029240    -27.153015    -6.633708    12.209142    28.882164    -13.994710    2.611926    11.524095    -12.878526    0.000000    0.000000    0.000000    
33.938938    159.210419    -100.955963    -0.510868    -1.102054    24.177851    -2.149568    -2.059241    -3.139847    -7.139858    -6.569275    -1.446027    6.411506    2.044269    -3.310424    12.676351    5.703396    -3.095962    16.647610    -19.344856    -15.082418    -39.816700    -36.427029    -73.595581    -0.192235    -58.361248    -118.649544    -35.087311    -49.428837    -46.220604    -8.720205    5.460124    -6.027258    21.738041    24.995388    10.495427    16.639322    13.504007    5.101108    2.402788    13.265931    23.583912    8.816471    2.646127    0.840391    -10.439303    22.620453    -16.616621    6.548890    -22.586353    44.620087    0.000000    0.000000    0.000000    -14.040243    -27.146317    -6.609922    12.212423    28.894556    -13.978043    2.614498    11.509799    -12.912953    0.000000    0.000000    0.000000    
33.966137    159.203003    -100.959053    -0.497579    -1.117554    24.176182    -2.165145    -2.085407    -3.116689    -7.132753    -6.508710    -1.433897    6.422250    2.085936    -3.312329    12.614729    5.661260    -3.098142    16.597988    -19.237600    -15.100709    -39.626190    -36.296635    -73.437836    0.193574    -58.474178    -117.925575    -35.165623    -49.095745    -46.332722    -8.720105    5.473806    -6.045036    21.769905    24.984905    10.508846    16.622465    13.494011    5.119746    2.430885    13.259528    23.574909    8.801849    2.676639    0.831105    -10.441247    22.607553    -16.612638    6.572282    -22.584740    44.620819    0.000000    0.000000    0.000000    -14.046054    -27.127039    -6.599019    12.201790    28.897478    -13.956734    2.625056    11.495677    -12.931089    0.000000    0.000000    0.000000    
33.989719    159.197067    -100.962173    -0.486996    -1.134337    24.173090    -2.183429    -2.107300    -3.096033    -7.121760    -6.448186    -1.422342    6.396884    2.089547    -3.318163    12.618792    5.674300    -3.101758    16.560680    -19.141659    -15.113678    -39.461163    -36.166649    -73.308846    0.582876    -58.569504    -117.145233    -35.175072    -48.783295    -46.389507    -8.712260    5.470877    -6.062101    21.793970    25.005478    10.520033    16.596191    13.456244    5.146620    2.461577    13.225166    23.568604    8.789856    2.705676    0.808679    -10.442185    22.592789    -16.599913    6.565972    -22.603922    44.625919    0.000000    0.000000    0.000000    -14.046137    -27.109015    -6.591597    12.183603    28.905445    -13.950920    2.628743    11.480092    -12.917488    0.000000    0.000000    0.000000    
34.009899    159.195526    -100.971428    -0.486312    -1.138772    24.169128    -2.200095    -2.138514    -3.080901    -7.101105    -6.398540    -1.412736    6.382867    2.098556    -3.311216    12.600470    5.682777    -3.094839    16.500633    -19.026051    -15.122493    -39.191071    -35.983871    -73.122292    0.767104    -58.672310    -116.577583    -34.983166    -48.810078    -46.286945    -8.715238    5.494084    -6.072404    21.816038    25.014782    10.540440    16.560009    13.425007    5.196355    2.521909    13.200089    23.540394    8.781918    2.710973    0.795890    -10.443963    22.597986    -16.607050    6.575712    -22.613804    44.643219    0.000000    0.000000    0.000000    -14.047091    -27.105921    -6.602676    12.168178    28.906422    -13.921354    2.626211    11.493250    -12.930003    0.000000    0.000000    0.000000    
